<?xml version="1.0" encoding="UTF-8" standalone="no"?>
<svg
   xmlns:dc="http://purl.org/dc/elements/1.1/"
   xmlns:cc="http://creativecommons.org/ns#"
   xmlns:rdf="http://www.w3.org/1999/02/22-rdf-syntax-ns#"
   xmlns:svg="http://www.w3.org/2000/svg"
   xmlns="http://www.w3.org/2000/svg"
   xmlns:sodipodi="http://sodipodi.sourceforge.net/DTD/sodipodi-0.dtd"
   xmlns:inkscape="http://www.inkscape.org/namespaces/inkscape"
   version="1.1"
   width="29.7002cm"
   height="21.0007cm"
   viewBox="0 0 116930 82680 "
   id="svg342"
   sodipodi:docname="proj-drl_map.svg"
   inkscape:version="0.92.1 r">
  <metadata
     id="metadata348">
    <rdf:RDF>
      <cc:Work
         rdf:about="">
        <dc:format>image/svg+xml</dc:format>
        <dc:type
           rdf:resource="http://purl.org/dc/dcmitype/StillImage" />
      </cc:Work>
    </rdf:RDF>
  </metadata>
  <defs
     id="defs346" />
  <sodipodi:namedview
     pagecolor="#ffffff"
     bordercolor="#666666"
     borderopacity="1"
     objecttolerance="10"
     gridtolerance="10"
     guidetolerance="10"
     inkscape:pageopacity="0"
     inkscape:pageshadow="2"
     inkscape:window-width="640"
     inkscape:window-height="480"
     id="namedview344"
     showgrid="false"
     inkscape:zoom="0.7861451"
     inkscape:cx="529.85172"
     inkscape:cy="342.63901"
     inkscape:window-x="0"
     inkscape:window-y="27"
     inkscape:window-maximized="0"
     inkscape:current-layer="svg342" />
  <title
     id="title2">SVG Picture created as proj-drl_map.svg date 2017/05/28 21:14:54 </title>
  <desc
     id="desc4">Picture generated by PCBNEW </desc>
  <g
     style="fill:#000000; fill-opacity:1;stroke:#000000; stroke-opacity:1; stroke-linecap:round; stroke-linejoin:round; "
     transform="translate(0 0) scale(1 1)"
     id="g6" />
  <g
     style="fill:#000000;fill-opacity:0;stroke:#000000;stroke-width:78.74019623;stroke-linecap:round;stroke-linejoin:round;stroke-opacity:1"
     id="g188"
     transform="matrix(-1,0,0,1,111500,0)">
    <path
       d="m 44842,36842 315,315"
       id="path8"
       inkscape:connector-curvature="0" />
    <path
       d="m 45157,36842 -315,315"
       id="path10"
       inkscape:connector-curvature="0" />
    <path
       d="m 44842,40842 315,315"
       id="path12"
       inkscape:connector-curvature="0" />
    <path
       d="m 45157,40842 -315,315"
       id="path14"
       inkscape:connector-curvature="0" />
    <path
       d="m 44842,41842 315,315"
       id="path16"
       inkscape:connector-curvature="0" />
    <path
       d="m 45157,41842 -315,315"
       id="path18"
       inkscape:connector-curvature="0" />
    <path
       d="m 44842,45842 315,315"
       id="path20"
       inkscape:connector-curvature="0" />
    <path
       d="m 45157,45842 -315,315"
       id="path22"
       inkscape:connector-curvature="0" />
    <path
       d="m 47842,34342 315,315"
       id="path24"
       inkscape:connector-curvature="0" />
    <path
       d="m 48157,34342 -315,315"
       id="path26"
       inkscape:connector-curvature="0" />
    <path
       d="m 47842,38342 315,315"
       id="path28"
       inkscape:connector-curvature="0" />
    <path
       d="m 48157,38342 -315,315"
       id="path30"
       inkscape:connector-curvature="0" />
    <path
       d="m 47842,39842 315,315"
       id="path32"
       inkscape:connector-curvature="0" />
    <path
       d="m 48157,39842 -315,315"
       id="path34"
       inkscape:connector-curvature="0" />
    <path
       d="m 47842,40842 315,315"
       id="path36"
       inkscape:connector-curvature="0" />
    <path
       d="m 48157,40842 -315,315"
       id="path38"
       inkscape:connector-curvature="0" />
    <path
       d="m 47842,41842 315,315"
       id="path40"
       inkscape:connector-curvature="0" />
    <path
       d="m 48157,41842 -315,315"
       id="path42"
       inkscape:connector-curvature="0" />
    <path
       d="m 47842,42842 315,315"
       id="path44"
       inkscape:connector-curvature="0" />
    <path
       d="m 48157,42842 -315,315"
       id="path46"
       inkscape:connector-curvature="0" />
    <path
       d="m 48842,45842 315,315"
       id="path48"
       inkscape:connector-curvature="0" />
    <path
       d="m 49157,45842 -315,315"
       id="path50"
       inkscape:connector-curvature="0" />
    <path
       d="m 50342,47342 315,315"
       id="path52"
       inkscape:connector-curvature="0" />
    <path
       d="m 50657,47342 -315,315"
       id="path54"
       inkscape:connector-curvature="0" />
    <path
       d="m 50842,39842 315,315"
       id="path56"
       inkscape:connector-curvature="0" />
    <path
       d="m 51157,39842 -315,315"
       id="path58"
       inkscape:connector-curvature="0" />
    <path
       d="m 50842,40842 315,315"
       id="path60"
       inkscape:connector-curvature="0" />
    <path
       d="m 51157,40842 -315,315"
       id="path62"
       inkscape:connector-curvature="0" />
    <path
       d="m 50842,41842 315,315"
       id="path64"
       inkscape:connector-curvature="0" />
    <path
       d="m 51157,41842 -315,315"
       id="path66"
       inkscape:connector-curvature="0" />
    <path
       d="m 50842,42842 315,315"
       id="path68"
       inkscape:connector-curvature="0" />
    <path
       d="m 51157,42842 -315,315"
       id="path70"
       inkscape:connector-curvature="0" />
    <path
       d="m 52842,45842 315,315"
       id="path72"
       inkscape:connector-curvature="0" />
    <path
       d="m 53157,45842 -315,315"
       id="path74"
       inkscape:connector-curvature="0" />
    <path
       d="m 54342,47342 315,315"
       id="path76"
       inkscape:connector-curvature="0" />
    <path
       d="m 54657,47342 -315,315"
       id="path78"
       inkscape:connector-curvature="0" />
    <path
       d="m 57342,44842 315,315"
       id="path80"
       inkscape:connector-curvature="0" />
    <path
       d="m 57657,44842 -315,315"
       id="path82"
       inkscape:connector-curvature="0" />
    <path
       d="m 57342,45842 315,315"
       id="path84"
       inkscape:connector-curvature="0" />
    <path
       d="m 57657,45842 -315,315"
       id="path86"
       inkscape:connector-curvature="0" />
    <path
       d="m 57342,46842 315,315"
       id="path88"
       inkscape:connector-curvature="0" />
    <path
       d="m 57657,46842 -315,315"
       id="path90"
       inkscape:connector-curvature="0" />
    <path
       d="m 57342,47842 315,315"
       id="path92"
       inkscape:connector-curvature="0" />
    <path
       d="m 57657,47842 -315,315"
       id="path94"
       inkscape:connector-curvature="0" />
    <path
       d="m 60342,44842 315,315"
       id="path96"
       inkscape:connector-curvature="0" />
    <path
       d="m 60657,44842 -315,315"
       id="path98"
       inkscape:connector-curvature="0" />
    <path
       d="m 60342,45842 315,315"
       id="path100"
       inkscape:connector-curvature="0" />
    <path
       d="m 60657,45842 -315,315"
       id="path102"
       inkscape:connector-curvature="0" />
    <path
       d="m 60342,46842 315,315"
       id="path104"
       inkscape:connector-curvature="0" />
    <path
       d="m 60657,46842 -315,315"
       id="path106"
       inkscape:connector-curvature="0" />
    <path
       d="m 60342,47842 315,315"
       id="path108"
       inkscape:connector-curvature="0" />
    <path
       d="m 60657,47842 -315,315"
       id="path110"
       inkscape:connector-curvature="0" />
    <path
       d="m 62842,38842 315,315"
       id="path112"
       inkscape:connector-curvature="0" />
    <path
       d="m 63157,38842 -315,315"
       id="path114"
       inkscape:connector-curvature="0" />
    <path
       d="m 62842,43842 315,315"
       id="path116"
       inkscape:connector-curvature="0" />
    <path
       d="m 63157,43842 -315,315"
       id="path118"
       inkscape:connector-curvature="0" />
    <path
       d="m 66842,38842 315,315"
       id="path120"
       inkscape:connector-curvature="0" />
    <path
       d="m 67157,38842 -315,315"
       id="path122"
       inkscape:connector-curvature="0" />
    <path
       d="m 66842,43842 315,315"
       id="path124"
       inkscape:connector-curvature="0" />
    <path
       d="m 67157,43842 -315,315"
       id="path126"
       inkscape:connector-curvature="0" />
    <circle
       cx="37000"
       cy="41000"
       r="196.85001"
       id="circle128" />
    <circle
       cx="37000"
       cy="42000"
       r="196.85001"
       id="circle130" />
    <circle
       cx="37000"
       cy="43000"
       r="196.85001"
       id="circle132" />
    <circle
       cx="40000"
       cy="39000"
       r="196.85001"
       id="circle134" />
    <circle
       cx="40000"
       cy="44000"
       r="196.85001"
       id="circle136" />
    <circle
       cx="41968.5"
       cy="39000"
       r="196.85001"
       id="circle138" />
    <circle
       cx="41968.5"
       cy="44000"
       r="196.85001"
       id="circle140" />
    <circle
       cx="47000"
       cy="45500"
       r="196.85001"
       id="circle142" />
    <circle
       cx="47000"
       cy="48452.801"
       r="196.85001"
       id="circle144" />
    <circle
       cx="50000"
       cy="34500"
       r="196.85001"
       id="circle146" />
    <circle
       cx="51000"
       cy="34500"
       r="196.85001"
       id="circle148" />
    <circle
       cx="52000"
       cy="34500"
       r="196.85001"
       id="circle150" />
    <circle
       cx="54000"
       cy="38000"
       r="196.85001"
       id="circle152" />
    <circle
       cx="54000"
       cy="40952.801"
       r="196.85001"
       id="circle154" />
    <circle
       cx="54000"
       cy="43047.199"
       r="196.85001"
       id="circle156" />
    <circle
       cx="54000"
       cy="46000"
       r="196.85001"
       id="circle158" />
    <circle
       cx="59000"
       cy="34500"
       r="196.85001"
       id="circle160" />
    <circle
       cx="60000"
       cy="34500"
       r="196.85001"
       id="circle162" />
    <circle
       cx="63000"
       cy="34500"
       r="196.85001"
       id="circle164" />
    <circle
       cx="64000"
       cy="34500"
       r="196.85001"
       id="circle166" />
    <circle
       cx="64000"
       cy="49000"
       r="196.85001"
       id="circle168" />
    <circle
       cx="65000"
       cy="34500"
       r="196.85001"
       id="circle170" />
    <circle
       cx="65000"
       cy="49000"
       r="196.85001"
       id="circle172" />
    <circle
       cx="69500"
       cy="39000"
       r="196.85001"
       id="circle174" />
    <circle
       cx="69500"
       cy="44000"
       r="196.85001"
       id="circle176" />
    <circle
       cx="71468.5"
       cy="39000"
       r="196.85001"
       id="circle178" />
    <circle
       cx="71468.5"
       cy="44000"
       r="196.85001"
       id="circle180" />
    <circle
       cx="74500"
       cy="40000"
       r="196.85001"
       id="circle182" />
    <circle
       cx="74500"
       cy="41000"
       r="196.85001"
       id="circle184" />
    <circle
       cx="74500"
       cy="42000"
       r="196.85001"
       id="circle186" />
  </g>
  <g
     style="fill:#000000;fill-opacity:0;stroke:#000000;stroke-width:118.11000061;stroke-linecap:round;stroke-linejoin:round;stroke-opacity:1"
     id="g340"
     transform="translate(84324.53,71207.381)">
    <path
       d="M 1068,1833 V 652 h 281 l 169,56 113,113 56,112 56,225 v 169 l -56,225 -56,112 -113,113 -169,56 h -281"
       id="path190"
       inkscape:connector-curvature="0" />
    <path
       d="M 2249,1833 V 1046"
       id="path192"
       inkscape:connector-curvature="0" />
    <path
       d="m 2249,1271 56,-113 57,-56 112,-56 h 113"
       id="path194"
       inkscape:connector-curvature="0" />
    <path
       d="M 2980,1833 V 1046"
       id="path196"
       inkscape:connector-curvature="0" />
    <path
       d="m 2980,652 -56,56 56,56 57,-56 -57,-56 v 112"
       id="path198"
       inkscape:connector-curvature="0" />
    <path
       d="m 3712,1833 -113,-56 -56,-113 V 652"
       id="path200"
       inkscape:connector-curvature="0" />
    <path
       d="m 4330,1833 -112,-56 -57,-113 V 652"
       id="path202"
       inkscape:connector-curvature="0" />
    <path
       d="M 5680,1833 V 652 l 394,844 393,-844 v 1181"
       id="path204"
       inkscape:connector-curvature="0" />
    <path
       d="m 7536,1833 v -619 l -56,-112 -113,-56 h -225 l -112,56"
       id="path206"
       inkscape:connector-curvature="0" />
    <path
       d="m 7536,1777 -112,56 h -282 l -112,-56 -56,-113 v -112 l 56,-113 112,-56 h 282 l 112,-56"
       id="path208"
       inkscape:connector-curvature="0" />
    <path
       d="M 8098,1046 V 2227"
       id="path210"
       inkscape:connector-curvature="0" />
    <path
       d="m 8098,1102 113,-56 h 225 l 112,56 57,56 56,113 v 337 l -56,113 -57,56 -112,56 h -225 l -113,-56"
       id="path212"
       inkscape:connector-curvature="0" />
    <path
       d="m 9167,1721 56,56 -56,56 -56,-56 56,-56 v 112"
       id="path214"
       inkscape:connector-curvature="0" />
    <path
       d="m 9167,1102 56,56 -56,56 -56,-56 56,-56 v 112"
       id="path216"
       inkscape:connector-curvature="0" />
    <path
       d="M -314,3622 0,3937"
       id="path218"
       inkscape:connector-curvature="0" />
    <path
       d="m 0,3622 -314,315"
       id="path220"
       inkscape:connector-curvature="0" />
    <path
       d="m 1293,3132 h 113 l 112,56 56,57 57,112 56,225 v 281 l -56,225 -57,113 -56,56 -112,56 h -113 l -112,-56 -57,-56 -56,-113 -56,-225 v -281 l 56,-225 56,-112 57,-57 112,-56"
       id="path222"
       inkscape:connector-curvature="0" />
    <path
       d="m 2193,4201 56,56 -56,56 -56,-56 56,-56 v 112"
       id="path224"
       inkscape:connector-curvature="0" />
    <path
       d="m 2924,3638 -112,-56 -57,-56 -56,-113 v -56 l 56,-112 57,-57 112,-56 h 225 l 113,56 56,57 56,112 v 56 l -56,113 -56,56 -113,56 h -225 l -112,57 -57,56 -56,112 v 225 l 56,113 57,56 112,56 h 225 l 113,-56 56,-56 56,-113 v -225 l -56,-112 -56,-56 -113,-57"
       id="path226"
       inkscape:connector-curvature="0" />
    <path
       d="m 4105,3132 h 113 l 112,56 56,57 57,112 56,225 v 281 l -56,225 -57,113 -56,56 -112,56 h -113 l -112,-56 -56,-56 -57,-113 -56,-225 v -281 l 56,-225 57,-112 56,-57 112,-56"
       id="path228"
       inkscape:connector-curvature="0" />
    <path
       d="M 5005,4313 V 3526"
       id="path230"
       inkscape:connector-curvature="0" />
    <path
       d="m 5005,3638 56,-56 113,-56 h 169 l 112,56 56,113 v 618"
       id="path232"
       inkscape:connector-curvature="0" />
    <path
       d="m 5511,3695 57,-113 112,-56 h 169 l 112,56 56,113 v 618"
       id="path234"
       inkscape:connector-curvature="0" />
    <path
       d="M 6580,4313 V 3526"
       id="path236"
       inkscape:connector-curvature="0" />
    <path
       d="m 6580,3638 56,-56 113,-56 h 168 l 113,56 56,113 v 618"
       id="path238"
       inkscape:connector-curvature="0" />
    <path
       d="m 7086,3695 56,-113 113,-56 h 169 l 112,56 56,113 v 618"
       id="path240"
       inkscape:connector-curvature="0" />
    <path
       d="M 9898,3076 8886,4595"
       id="path242"
       inkscape:connector-curvature="0" />
    <path
       d="m 11417,3132 h 112 l 113,56 56,57 56,112 57,225 v 281 l -57,225 -56,113 -56,56 -113,56 h -112 l -113,-56 -56,-56 -56,-113 -56,-225 v -281 l 56,-225 56,-112 56,-57 113,-56"
       id="path244"
       inkscape:connector-curvature="0" />
    <path
       d="m 12317,4201 56,56 -56,56 -57,-56 57,-56 v 112"
       id="path246"
       inkscape:connector-curvature="0" />
    <path
       d="m 13104,3132 h 113 l 112,56 56,57 57,112 56,225 v 281 l -56,225 -57,113 -56,56 -112,56 h -113 l -112,-56 -57,-56 -56,-113 -56,-225 v -281 l 56,-225 56,-112 57,-57 112,-56"
       id="path248"
       inkscape:connector-curvature="0" />
    <path
       d="m 13892,3132 h 731 l -394,450 h 169 l 112,56 56,57 57,112 v 281 l -57,113 -56,56 -112,56 h -338 l -112,-56 -56,-56"
       id="path250"
       inkscape:connector-curvature="0" />
    <path
       d="m 15748,4313 h -675"
       id="path252"
       inkscape:connector-curvature="0" />
    <path
       d="M 15410,4313 V 3132 l -112,169 -113,112 -112,57"
       id="path254"
       inkscape:connector-curvature="0" />
    <path
       d="m 16197,3132 v 225"
       id="path256"
       inkscape:connector-curvature="0" />
    <path
       d="m 16647,3132 v 225"
       id="path258"
       inkscape:connector-curvature="0" />
    <path
       d="m 18391,4763 -56,-56 -113,-169 -56,-112 -56,-169 -57,-281 v -225 l 57,-281 56,-169 56,-113 113,-168 56,-56"
       id="path260"
       inkscape:connector-curvature="0" />
    <path
       d="m 18728,3132 h 732 l -394,450 h 169 l 112,56 56,57 57,112 v 281 l -57,113 -56,56 -112,56 h -338 l -112,-56 -57,-56"
       id="path262"
       inkscape:connector-curvature="0" />
    <path
       d="m 20191,3132 h 112 l 113,56 56,57 56,112 56,225 v 281 l -56,225 -56,113 -56,56 -113,56 h -112 l -113,-56 -56,-56 -56,-113 -56,-225 v -281 l 56,-225 56,-112 56,-57 113,-56"
       id="path264"
       inkscape:connector-curvature="0" />
    <path
       d="M 21991,4313 V 3132"
       id="path266"
       inkscape:connector-curvature="0" />
    <path
       d="m 22497,4313 v -618 l -57,-113 -112,-56 h -169 l -112,56 -56,56"
       id="path268"
       inkscape:connector-curvature="0" />
    <path
       d="m 23228,4313 -113,-56 -56,-56 -56,-113 v -337 l 56,-113 56,-56 113,-56 h 169 l 112,56 56,56 57,113 v 337 l -57,113 -56,56 -112,56 h -169"
       id="path270"
       inkscape:connector-curvature="0" />
    <path
       d="m 24296,4313 -112,-56 -56,-112 V 3132"
       id="path272"
       inkscape:connector-curvature="0" />
    <path
       d="m 25196,4257 -112,56 h -225 l -113,-56 -56,-112 v -450 l 56,-113 113,-56 h 225 l 112,56 57,113 v 112 l -563,113"
       id="path274"
       inkscape:connector-curvature="0" />
    <path
       d="m 25703,4257 112,56 h 225 l 112,-56 57,-112 v -57 l -57,-112 -112,-56 h -169 l -112,-57 -56,-112 v -56 l 56,-113 112,-56 h 169 l 112,56"
       id="path276"
       inkscape:connector-curvature="0" />
    <path
       d="m 26602,4763 57,-56 112,-169 56,-112 57,-169 56,-281 v -225 l -56,-281 -57,-169 -56,-113 -112,-168 -57,-56"
       id="path278"
       inkscape:connector-curvature="0" />
    <circle
       cx="-196.85001"
       cy="5338.5801"
       r="196.85001"
       id="circle280" />
    <path
       d="M 1687,5872 H 1012"
       id="path282"
       inkscape:connector-curvature="0" />
    <path
       d="M 1349,5872 V 4691 l -112,169 -113,113 -112,56"
       id="path284"
       inkscape:connector-curvature="0" />
    <path
       d="m 2193,5760 56,56 -56,56 -56,-56 56,-56 v 112"
       id="path286"
       inkscape:connector-curvature="0" />
    <path
       d="m 2980,4691 h 113 l 112,57 57,56 56,112 56,225 v 281 l -56,225 -56,113 -57,56 -112,56 h -113 l -112,-56 -56,-56 -57,-113 -56,-225 v -281 l 56,-225 57,-112 56,-56 112,-57"
       id="path288"
       inkscape:connector-curvature="0" />
    <path
       d="m 4105,4691 h 113 l 112,57 56,56 57,112 56,225 v 281 l -56,225 -57,113 -56,56 -112,56 h -113 l -112,-56 -56,-56 -57,-113 -56,-225 v -281 l 56,-225 57,-112 56,-56 112,-57"
       id="path290"
       inkscape:connector-curvature="0" />
    <path
       d="M 5005,5872 V 5085"
       id="path292"
       inkscape:connector-curvature="0" />
    <path
       d="m 5005,5197 56,-56 113,-56 h 169 l 112,56 56,113 v 618"
       id="path294"
       inkscape:connector-curvature="0" />
    <path
       d="m 5511,5254 57,-113 112,-56 h 169 l 112,56 56,113 v 618"
       id="path296"
       inkscape:connector-curvature="0" />
    <path
       d="M 6580,5872 V 5085"
       id="path298"
       inkscape:connector-curvature="0" />
    <path
       d="m 6580,5197 56,-56 113,-56 h 168 l 113,56 56,113 v 618"
       id="path300"
       inkscape:connector-curvature="0" />
    <path
       d="m 7086,5254 56,-113 113,-56 h 169 l 112,56 56,113 v 618"
       id="path302"
       inkscape:connector-curvature="0" />
    <path
       d="M 9898,4635 8886,6154"
       id="path304"
       inkscape:connector-curvature="0" />
    <path
       d="m 11417,4691 h 112 l 113,57 56,56 56,112 57,225 v 281 l -57,225 -56,113 -56,56 -113,56 h -112 l -113,-56 -56,-56 -56,-113 -56,-225 v -281 l 56,-225 56,-112 56,-56 113,-57"
       id="path306"
       inkscape:connector-curvature="0" />
    <path
       d="m 12317,5760 56,56 -56,56 -57,-56 57,-56 v 112"
       id="path308"
       inkscape:connector-curvature="0" />
    <path
       d="m 13104,4691 h 113 l 112,57 56,56 57,112 56,225 v 281 l -56,225 -57,113 -56,56 -112,56 h -113 l -112,-56 -57,-56 -56,-113 -56,-225 v -281 l 56,-225 56,-112 57,-56 112,-57"
       id="path310"
       inkscape:connector-curvature="0" />
    <path
       d="m 13892,4691 h 731 l -394,450 h 169 l 112,56 56,57 57,112 v 281 l -57,113 -56,56 -112,56 h -338 l -112,-56 -56,-56"
       id="path312"
       inkscape:connector-curvature="0" />
    <path
       d="m 15185,5872 h 225 l 113,-56 56,-56 112,-169 57,-225 v -450 l -57,-112 -56,-56 -112,-57 h -225 l -113,57 -56,56 -56,112 v 281 l 56,113 56,56 113,56 h 225 l 112,-56 56,-56 57,-113"
       id="path314"
       inkscape:connector-curvature="0" />
    <path
       d="m 16197,4691 v 225"
       id="path316"
       inkscape:connector-curvature="0" />
    <path
       d="m 16647,4691 v 225"
       id="path318"
       inkscape:connector-curvature="0" />
    <path
       d="m 18391,6322 -56,-56 -113,-169 -56,-112 -56,-169 -57,-281 v -225 l 57,-281 56,-169 56,-112 113,-169 56,-56"
       id="path320"
       inkscape:connector-curvature="0" />
    <path
       d="m 18728,4691 h 732 l -394,450 h 169 l 112,56 56,57 57,112 v 281 l -57,113 -56,56 -112,56 h -338 l -112,-56 -57,-56"
       id="path322"
       inkscape:connector-curvature="0" />
    <path
       d="m 20191,4691 h 112 l 113,57 56,56 56,112 56,225 v 281 l -56,225 -56,113 -56,56 -113,56 h -112 l -113,-56 -56,-56 -56,-113 -56,-225 v -281 l 56,-225 56,-112 56,-56 113,-57"
       id="path324"
       inkscape:connector-curvature="0" />
    <path
       d="M 21991,5872 V 4691"
       id="path326"
       inkscape:connector-curvature="0" />
    <path
       d="m 22497,5872 v -618 l -57,-113 -112,-56 h -169 l -112,56 -56,56"
       id="path328"
       inkscape:connector-curvature="0" />
    <path
       d="m 23228,5872 -113,-56 -56,-56 -56,-113 v -337 l 56,-113 56,-56 113,-56 h 169 l 112,56 56,56 57,113 v 337 l -57,113 -56,56 -112,56 h -169"
       id="path330"
       inkscape:connector-curvature="0" />
    <path
       d="m 24296,5872 -112,-56 -56,-112 V 4691"
       id="path332"
       inkscape:connector-curvature="0" />
    <path
       d="m 25196,5816 -112,56 h -225 l -113,-56 -56,-112 v -450 l 56,-113 113,-56 h 225 l 112,56 57,113 v 112 l -563,113"
       id="path334"
       inkscape:connector-curvature="0" />
    <path
       d="m 25703,5816 112,56 h 225 l 112,-56 57,-112 v -57 l -57,-112 -112,-56 h -169 l -112,-57 -56,-112 v -56 l 56,-113 112,-56 h 169 l 112,56"
       id="path336"
       inkscape:connector-curvature="0" />
    <path
       d="m 26602,6322 57,-56 112,-169 56,-112 57,-169 56,-281 v -225 l -56,-281 -57,-169 -56,-112 -112,-169 -57,-56"
       id="path338"
       inkscape:connector-curvature="0" />
  </g>
</svg>
